<svg width="800" height="600.0000000000001" xmlns="http://www.w3.org/2000/svg">
 <g>
  <title>Layer 1</title>
  <path id="svg_14" d="m233.68275,300l0,0c0,-91.85446 74.46278,-166.31723 166.31725,-166.31723l0,0c44.11006,0 86.41352,17.52265 117.60403,48.71318c31.19055,31.19054 48.71322,73.49396 48.71322,117.60405l0,0c0,91.85445 -74.46278,166.31723 -166.31725,166.31723l0,0c-91.85446,0 -166.31725,-74.46278 -166.31725,-166.31723zm83.15863,0l0,0c0,45.92722 37.23141,83.15861 83.15863,83.15861c45.92725,0 83.15863,-37.23139 83.15863,-83.15861c0,-45.92722 -37.2314,-83.15861 -83.15863,-83.15861l0,0c-45.92721,0 -83.15863,37.23141 -83.15863,83.15861z" fill-opacity="null" stroke-opacity="null" stroke-dasharray="null" stroke-width="0" stroke="#b2b2b2" fill="#b2b2b2"/>
  <ellipse ry="42.10562" rx="42.10562" id="svg_15" cy="300" cx="400" fill-opacity="null" stroke-opacity="null" stroke-dasharray="null" stroke-width="null" stroke="#b2b2b2" fill="#b2b2b2"/>
 </g>

</svg>